<svg id="Calque_1" data-name="Calque 1" xmlns="http://www.w3.org/2000/svg" xmlns:xlink="http://www.w3.org/1999/xlink" viewBox="0 0 1366 768"><defs><style>.cls-1{isolation:isolate;fill:url(#Dégradé_sans_nom_99);}.cls-2{fill:url(#Dégradé_sans_nom_99-2);}.cls-3{fill:url(#Dégradé_sans_nom_99-3);}.cls-4{fill:url(#Dégradé_sans_nom_99-4);}.cls-5{fill:url(#Dégradé_sans_nom_99-5);}.cls-6{fill:url(#Dégradé_sans_nom_99-6);}.cls-7{fill:url(#Dégradé_sans_nom_99-7);}.cls-8{font-size:224.44px;fill:#2b2b2b;font-family:ProductSans-Regular, Product Sans;}.cls-9{letter-spacing:-0.02em;}.cls-10{letter-spacing:-0.02em;}.cls-11{letter-spacing:-0.02em;}.cls-12{letter-spacing:-0.02em;}.cls-13{letter-spacing:-0.01em;}</style><linearGradient id="Dégradé_sans_nom_99" x1="167.52" y1="284.7" x2="351.22" y2="454.74" gradientUnits="userSpaceOnUse"><stop offset="0" stop-color="#b92cce"/><stop offset="1" stop-color="#e61a7e"/></linearGradient><linearGradient id="Dégradé_sans_nom_99-2" x1="209.15" y1="364.47" x2="241.49" y2="394.4" xlink:href="#Dégradé_sans_nom_99"/><linearGradient id="Dégradé_sans_nom_99-3" x1="221.4" y1="351.06" x2="289.44" y2="414.04" xlink:href="#Dégradé_sans_nom_99"/><linearGradient id="Dégradé_sans_nom_99-4" x1="263.66" y1="370.62" x2="307.39" y2="411.09" xlink:href="#Dégradé_sans_nom_99"/><linearGradient id="Dégradé_sans_nom_99-5" x1="357.07" y1="387.07" x2="396.66" y2="423.71" xlink:href="#Dégradé_sans_nom_99"/><linearGradient id="Dégradé_sans_nom_99-6" x1="304.59" y1="345.85" x2="388.94" y2="423.92" xlink:href="#Dégradé_sans_nom_99"/><linearGradient id="Dégradé_sans_nom_99-7" x1="287.36" y1="359.19" x2="345.96" y2="413.44" xlink:href="#Dégradé_sans_nom_99"/></defs><title>goodirz-logo</title><path class="cls-1" d="M156,328.18c-.53-36.09,8.95-68.59,35.15-94.65,27.57-27.43,73.81-35.1,109-18.55,19.42,9.13,31.26,25.34,40.46,43.9,1,2.08,2.4,4.84-.47,6.67s-4.46-.81-6.18-2.46c-19.12-18.33-40.56-31.36-68.16-31.92-39.54-.79-68,19.09-79.69,56.93-10,32.41-6.17,64.62,2.56,96.58,5.38,19.68,14.29,37.93,23.46,56.05,7.3,14.39,13.59,29.08,16.11,45.24.93,6,3.22,11.94,5.53,17.65,9.6,23.61,32.27,27.15,48.92,24.58,9.8-1.52,16.8-8,22-16.35,1.11-1.79,1.9-4.56,4.84-3.41,2.23.87,1.83,3.29,1.95,5.21,1.65,26.16-16.32,42.94-42.35,39.6-36.12-4.64-55.64-21-63.47-56.53-4.43-20.15-12.27-38.54-21.48-56.64-12.3-24.19-21.64-49.36-25.55-76.36A242.74,242.74,0,0,1,156,328.18Z"/><path class="cls-2" d="M234.66,398.12V360.75a9.35,9.35,0,0,0-18.69,0v37.37a9.35,9.35,0,0,0,18.69,0Z"/><path class="cls-3" d="M264.76,437.05v-109a9.34,9.34,0,0,0-18.68,0v109a9.34,9.34,0,0,0,18.68,0Z"/><path class="cls-4" d="M294.86,421V360.75a9.34,9.34,0,0,0-18.68,0V421a9.34,9.34,0,0,0,18.68,0Z"/><path class="cls-5" d="M376.87,370.1a9.34,9.34,0,0,0-9.35,9.34v51.9a9.35,9.35,0,0,0,18.69,0v-51.9A9.34,9.34,0,0,0,376.87,370.1Z"/><path class="cls-6" d="M346.77,304.7a9.35,9.35,0,0,0-9.35,9.34V455.73a9.35,9.35,0,0,0,18.69,0V314A9.34,9.34,0,0,0,346.77,304.7Z"/><path class="cls-7" d="M316.66,440.68a9.35,9.35,0,0,0,9.35-9.34v-90a9.35,9.35,0,0,0-18.69,0v90A9.34,9.34,0,0,0,316.66,440.68Z"/><text class="cls-8" transform="translate(438.65 457.47)"><tspan class="cls-9">G</tspan><tspan class="cls-10" x="176.19" y="0">oo</tspan><tspan class="cls-11" x="420.47" y="0">d</tspan><tspan class="cls-12" x="544.65" y="0">i</tspan><tspan class="cls-13" x="588.59" y="0">r</tspan><tspan x="668.13" y="0">z</tspan></text></svg>